<?xml version="1.0" standalone="no"?>
<!DOCTYPE svg PUBLIC "-//W3C//DTD SVG 20010904//EN"
 "http://www.w3.org/TR/2001/REC-SVG-20010904/DTD/svg10.dtd">
<svg version="1.0" xmlns="http://www.w3.org/2000/svg"
 width="700.000000pt" height="700.000000pt" viewBox="0 0 700.000000 700.000000"
 preserveAspectRatio="xMidYMid meet">
<metadata>
Created by potrace 1.14, written by Peter Selinger 2001-2017
</metadata>
<g transform="translate(0.000000,700.000000) scale(0.100000,-0.100000)"
fill="#000000" stroke="none">
<path d="M3220 6720 l0 -280 65 0 c45 0 65 4 66 13 0 6 1 87 1 180 0 92 1 167
2 167 2 0 65 -81 142 -180 l139 -179 73 -1 72 0 0 280 0 280 -65 0 c-60 0 -65
-2 -66 -22 0 -13 -1 -96 -1 -186 0 -90 -4 -160 -8 -155 -4 4 -69 88 -144 186
l-137 177 -70 0 -69 0 0 -280z"/>
<path d="M3459 6290 c-22 -13 -27 -26 -120 -345 -45 -154 -82 -281 -83 -282
-1 -1 -22 -4 -48 -7 -68 -8 -232 -42 -308 -65 -249 -73 -474 -184 -691 -342
l-67 -48 -38 21 c-22 11 -61 33 -89 48 -63 35 -134 73 -260 140 -55 30 -113
62 -130 72 -43 26 -80 23 -104 -7 -25 -33 -20 -61 28 -150 21 -38 58 -106 81
-150 24 -44 46 -84 50 -90 4 -5 33 -58 64 -118 l57 -107 -29 -38 c-90 -114
-214 -328 -279 -482 -64 -152 -132 -397 -147 -535 -4 -27 -10 -53 -14 -57 -8
-8 -102 -37 -413 -128 -191 -55 -207 -62 -215 -95 -14 -58 10 -78 146 -118 47
-14 173 -51 280 -83 107 -31 198 -60 202 -63 4 -3 9 -28 12 -56 39 -336 211
-748 427 -1026 l28 -35 -68 -125 c-37 -68 -83 -153 -103 -189 -95 -173 -128
-240 -128 -260 0 -34 18 -58 49 -65 30 -6 72 12 256 113 39 21 102 55 140 76
39 21 98 54 133 73 l63 35 52 -40 c286 -218 674 -377 1017 -418 25 -3 46 -6
46 -7 1 -1 15 -49 32 -107 69 -240 143 -483 152 -501 12 -22 50 -34 79 -24 31
10 43 39 116 286 36 123 75 252 86 286 l20 61 52 7 c87 11 109 15 197 36 287
66 568 196 797 367 l73 53 132 -72 c73 -40 156 -84 183 -99 28 -15 88 -49 135
-75 104 -58 140 -65 169 -36 31 31 26 65 -21 150 -44 81 -130 240 -208 386
l-49 90 45 60 c199 264 355 635 400 950 3 22 9 55 13 74 l6 34 160 47 c88 26
223 66 300 89 146 43 175 60 175 107 0 36 -30 59 -106 82 -38 11 -172 51 -299
88 -126 37 -231 68 -232 69 -1 1 -5 19 -8 41 -50 366 -192 716 -407 1007 l-50
67 108 198 c154 282 194 361 194 381 0 24 -41 61 -69 61 -12 0 -147 -67 -298
-150 l-276 -150 -66 49 c-291 215 -670 370 -992 406 -61 7 -66 10 -73 45 -3
14 -14 54 -25 90 -11 36 -31 106 -46 155 -76 256 -97 321 -112 337 -17 19 -58
23 -84 8z m37 -1387 l-1 -1068 -45 -6 c-25 -4 -61 -13 -81 -22 l-36 -15 -69
90 c-38 50 -74 96 -79 102 -6 6 -53 64 -104 129 -92 117 -93 118 -83 155 26
96 62 221 235 822 221 770 232 807 245 841 6 15 8 30 5 33 -4 3 -2 6 4 6 7 0
10 -349 9 -1067z m-356 370 c-34 -114 -83 -279 -108 -365 -25 -87 -49 -158
-53 -158 -4 0 -152 79 -329 175 -177 96 -325 175 -331 175 -27 0 0 27 84 81
209 138 458 240 707 289 47 9 86 15 88 14 2 -1 -24 -96 -58 -211z m785 188
c245 -52 473 -147 675 -282 87 -58 92 -64 74 -76 -10 -8 -163 -92 -339 -188
l-320 -173 -22 67 c-25 75 -58 185 -138 456 -30 105 -58 198 -61 208 -5 14 -1
17 18 12 13 -2 64 -13 113 -24z m1314 -217 c-71 -76 -1049 -1049 -1057 -1052
-5 -1 -15 16 -21 40 -18 66 -37 133 -74 255 l-34 113 86 47 c47 25 102 55 121
66 19 11 181 101 360 199 179 99 339 188 355 198 17 9 59 33 95 52 131 71 165
91 175 99 21 20 17 7 -6 -17z m-2962 -519 c295 -294 533 -538 529 -542 -3 -4
-12 -8 -19 -9 -7 -1 -95 -27 -197 -58 -101 -31 -187 -52 -192 -48 -4 4 -152
268 -328 587 -177 319 -327 586 -332 593 -49 59 77 -63 539 -523z m3028 -350
c35 -71 79 -179 99 -240 41 -124 87 -323 76 -330 -4 -2 -36 4 -71 14 -351 103
-556 165 -658 197 -11 3 -11 8 1 27 16 24 58 99 107 192 50 93 96 178 178 328
l76 138 65 -98 c36 -54 93 -156 127 -228z m-3236 -6 c95 -176 175 -328 178
-338 4 -15 -8 -22 -69 -39 -40 -11 -136 -39 -213 -62 -217 -64 -305 -90 -374
-111 -35 -10 -67 -16 -71 -14 -21 13 68 331 138 495 56 133 209 391 230 390 4
0 85 -145 181 -321z m2316 -399 c77 -23 406 -117 730 -210 661 -190 869 -250
872 -254 3 -2 -2137 0 -2149 2 -5 1 -8 15 -8 32 0 16 -8 52 -19 79 l-18 49
161 129 c175 139 186 148 231 187 17 14 37 26 45 26 8 0 78 -18 155 -40z
m-1219 -486 c2 -34 12 -78 24 -112 7 -19 9 -37 4 -41 -15 -13 -244 -193 -314
-246 -35 -28 -75 -60 -89 -72 -19 -16 -29 -19 -50 -12 -14 4 -388 111 -831
238 -443 126 -825 235 -850 243 -40 12 -2 14 335 18 209 3 693 5 1075 4 678
-1 695 -1 696 -20z m-1547 -306 c36 -11 95 -28 131 -38 36 -11 94 -28 130 -39
36 -10 106 -31 155 -46 50 -14 120 -35 157 -46 l66 -19 -85 -158 c-47 -86
-100 -184 -118 -217 -43 -79 -73 -134 -124 -227 -23 -43 -44 -78 -46 -78 -14
0 -142 210 -195 320 -70 143 -152 401 -173 543 -5 35 -4 37 15 32 11 -4 50
-16 87 -27z m3865 5 c-36 -203 -92 -377 -174 -551 -66 -138 -187 -329 -200
-316 -7 8 -176 317 -290 529 -23 44 -51 95 -62 113 -11 17 -18 32 -16 32 2 0
35 9 73 21 39 11 84 24 100 29 17 4 136 40 265 78 129 39 251 75 270 80 19 6
36 11 37 11 1 1 -1 -11 -3 -26z m-1783 -25 c18 -24 39 -50 46 -58 6 -8 62 -77
122 -153 61 -76 117 -148 125 -160 12 -20 -4 -85 -166 -647 -209 -728 -258
-899 -264 -920 -23 -92 -58 -209 -61 -206 -4 3 -7 2085 -4 2136 1 11 13 17 35
18 19 1 52 9 73 17 55 20 56 19 94 -27z m936 -278 c25 -45 119 -216 315 -570
14 -25 36 -65 50 -90 50 -92 93 -168 158 -285 37 -66 76 -138 88 -160 14 -28
-146 126 -516 497 -295 295 -538 540 -539 545 -4 10 399 132 408 124 4 -3 20
-31 36 -61z m-1798 -137 c60 -196 99 -338 95 -344 -3 -5 -355 -203 -586 -329
-120 -66 -141 -77 -278 -155 -41 -23 -104 -58 -140 -77 -36 -20 -96 -53 -134
-74 -66 -36 -43 -11 470 504 296 298 542 542 546 542 3 0 16 -30 27 -67z
m1619 -723 c127 -69 232 -128 232 -133 0 -11 -184 -129 -275 -175 -145 -73
-292 -127 -445 -164 -90 -21 -180 -37 -180 -32 0 2 6 23 14 46 8 24 24 77 36
118 12 41 32 111 45 155 38 127 117 388 122 407 6 19 -8 26 451 -222z m-1465
208 c2 -13 42 -147 87 -298 45 -151 90 -304 100 -339 11 -35 17 -67 15 -71 -5
-8 -139 19 -254 51 -100 28 -235 81 -345 136 -98 49 -286 168 -286 180 0 4 26
21 58 38 31 16 179 96 327 177 149 81 275 148 281 148 7 0 14 -10 17 -22z"/>
<path d="M5 3758 c3 -13 16 -86 29 -163 13 -77 34 -193 46 -257 l22 -118 47 0
47 0 18 88 c19 95 20 101 43 217 8 44 19 84 23 88 4 5 11 -15 15 -45 4 -29 13
-75 20 -103 7 -27 21 -94 30 -147 l17 -98 47 0 47 0 13 68 c7 37 19 101 26
142 8 41 17 87 19 103 11 65 33 180 42 220 5 26 4 27 -39 27 l-45 0 -7 -46
c-3 -25 -8 -55 -11 -67 -2 -12 -6 -39 -9 -60 -14 -91 -35 -200 -40 -205 -3 -3
-5 6 -5 19 -1 13 -15 98 -33 189 l-33 165 -52 3 c-29 2 -52 1 -52 0 0 -2 -9
-44 -19 -93 -11 -50 -22 -106 -25 -125 -4 -19 -12 -62 -20 -95 l-13 -60 -10
55 c-11 55 -23 127 -44 253 l-11 67 -44 0 c-41 0 -44 -2 -39 -22z"/>
<path d="M6440 3500 l0 -280 280 0 280 0 0 44 c0 26 -5 45 -12 48 -7 2 -100 3
-205 3 l-193 -1 0 77 0 76 168 -1 c92 -1 174 0 183 2 12 3 17 16 17 48 l1 44
-72 1 c-40 0 -123 0 -184 0 l-113 -1 0 63 0 62 197 0 197 0 2 48 2 47 -274 0
-274 0 0 -280z"/>
<path d="M3386 549 c-127 -30 -179 -147 -102 -228 34 -35 124 -66 251 -87 56
-10 100 -37 103 -65 5 -46 -53 -77 -139 -74 -66 2 -111 26 -132 70 -15 31 -15
31 -78 27 -35 -2 -65 -5 -66 -6 -11 -10 26 -85 55 -114 64 -63 197 -88 332
-61 132 26 203 126 155 219 -30 57 -87 86 -228 114 -114 24 -157 43 -157 72 0
70 199 70 231 0 11 -23 16 -24 81 -23 64 2 69 4 64 22 -3 11 -6 25 -6 31 0 19
-59 73 -97 90 -44 19 -208 27 -267 13z"/>
</g>
</svg>
